<?xml version="1.0" standalone="no"?>
<!DOCTYPE svg PUBLIC "-//W3C//DTD SVG 1.1//EN" "http://www.w3.org/Graphics/SVG/1.1/DTD/svg11.dtd" >
<svg xmlns="http://www.w3.org/2000/svg">
<metadata></metadata>
<defs>
<font id="birdmanlight" horiz-adv-x="1972" >
<font-face units-per-em="2048" ascent="1636" descent="-412" />
<missing-glyph horiz-adv-x="795" />
<glyph horiz-adv-x="2048" />
<glyph horiz-adv-x="2048" />
<glyph unicode="&#xd;" horiz-adv-x="795" />
<glyph unicode=" "  horiz-adv-x="795" />
<glyph unicode="&#x09;" horiz-adv-x="795" />
<glyph unicode="&#xa0;" horiz-adv-x="795" />
<glyph unicode="!" d="M109 535q91 43 118 99q98 205 288 204v3q33 0 97.5 -2.5t97.5 -2.5q126 0 176 20q76 30 124 124q43 -83 106 -116q56 -28 157 -28q40 0 117 2.5t118 2.5v-3q111 0 176 -53q53 -43 109 -151q31 -59 119 -99q-61 -25 -122 -106q-48 -68 -93 -136q-66 -63 -179 -63h-101 l-99 2q-119 3 -182 -20q-83 -33 -126 -126q-45 101 -131 129q-56 18 -190 17h-78q8 0 -45 -2h-31q-205 0 -288 154q-15 25 -50 91q-28 30 -88 60zM439 364q35 -33 89 -33q38 0 78 33v346h-55v-324h-56v324h-56v-346zM657 662h55v-324h56v324h55v48h-166v-48zM874 364 q35 -33 88 -33q38 0 78 33v323q-33 30 -83 30q-53 0 -83 -30v-323zM929 386v276h56v-276h-56zM1091 338h55v99h64l48 48v202q-38 23 -81 23h-86v-372zM1146 487v175h56v-175h-56zM1321 338h55v372h-55v-372zM1439 336h58v101h56v-101h56v351q-33 28 -84 28q-58 0 -86 -28 v-351zM1497 487v175q5 5 23 5h8q15 0 25 -5v-175h-56z" />
<glyph unicode="&#x22;" d="M109 535q91 43 118 99q98 205 288 204v3q33 0 97.5 -2.5t97.5 -2.5q126 0 176 20q76 30 124 124q43 -83 106 -116q56 -28 157 -28q40 0 117 2.5t118 2.5v-3q111 0 176 -53q53 -43 109 -151q31 -59 119 -99q-61 -25 -122 -106q-48 -68 -93 -136q-66 -63 -179 -63h-101 l-99 2q-119 3 -182 -20q-83 -33 -126 -126q-45 101 -131 129q-56 18 -190 17h-78q8 0 -45 -2h-31q-205 0 -288 154q-15 25 -50 91q-28 30 -88 60zM439 364q35 -33 89 -33q38 0 78 33v346h-55v-324h-56v324h-56v-346zM657 662h55v-324h56v324h55v48h-166v-48zM874 364 q35 -33 88 -33q38 0 78 33v323q-33 30 -83 30q-53 0 -83 -30v-323zM929 386v276h56v-276h-56zM1091 338h55v99h64l48 48v202q-38 23 -81 23h-86v-372zM1146 487v175h56v-175h-56zM1321 338h55v372h-55v-372zM1439 336h58v101h56v-101h56v351q-33 28 -84 28q-58 0 -86 -28 v-351zM1497 487v175q5 5 23 5h8q15 0 25 -5v-175h-56z" />
<glyph unicode="#" d="M109 535q91 43 118 99q98 205 288 204v3q33 0 97.5 -2.5t97.5 -2.5q126 0 176 20q76 30 124 124q43 -83 106 -116q56 -28 157 -28q40 0 117 2.5t118 2.5v-3q111 0 176 -53q53 -43 109 -151q31 -59 119 -99q-61 -25 -122 -106q-48 -68 -93 -136q-66 -63 -179 -63h-101 l-99 2q-119 3 -182 -20q-83 -33 -126 -126q-45 101 -131 129q-56 18 -190 17h-78q8 0 -45 -2h-31q-205 0 -288 154q-15 25 -50 91q-28 30 -88 60zM439 364q35 -33 89 -33q38 0 78 33v346h-55v-324h-56v324h-56v-346zM657 662h55v-324h56v324h55v48h-166v-48zM874 364 q35 -33 88 -33q38 0 78 33v323q-33 30 -83 30q-53 0 -83 -30v-323zM929 386v276h56v-276h-56zM1091 338h55v99h64l48 48v202q-38 23 -81 23h-86v-372zM1146 487v175h56v-175h-56zM1321 338h55v372h-55v-372zM1439 336h58v101h56v-101h56v351q-33 28 -84 28q-58 0 -86 -28 v-351zM1497 487v175q5 5 23 5h8q15 0 25 -5v-175h-56z" />
<glyph unicode="$" d="M109 535q91 43 118 99q98 205 288 204v3q33 0 97.5 -2.5t97.5 -2.5q126 0 176 20q76 30 124 124q43 -83 106 -116q56 -28 157 -28q40 0 117 2.5t118 2.5v-3q111 0 176 -53q53 -43 109 -151q31 -59 119 -99q-61 -25 -122 -106q-48 -68 -93 -136q-66 -63 -179 -63h-101 l-99 2q-119 3 -182 -20q-83 -33 -126 -126q-45 101 -131 129q-56 18 -190 17h-78q8 0 -45 -2h-31q-205 0 -288 154q-15 25 -50 91q-28 30 -88 60zM439 364q35 -33 89 -33q38 0 78 33v346h-55v-324h-56v324h-56v-346zM657 662h55v-324h56v324h55v48h-166v-48zM874 364 q35 -33 88 -33q38 0 78 33v323q-33 30 -83 30q-53 0 -83 -30v-323zM929 386v276h56v-276h-56zM1091 338h55v99h64l48 48v202q-38 23 -81 23h-86v-372zM1146 487v175h56v-175h-56zM1321 338h55v372h-55v-372zM1439 336h58v101h56v-101h56v351q-33 28 -84 28q-58 0 -86 -28 v-351zM1497 487v175q5 5 23 5h8q15 0 25 -5v-175h-56z" />
<glyph unicode="%" d="M109 535q91 43 118 99q98 205 288 204v3q33 0 97.5 -2.5t97.5 -2.5q126 0 176 20q76 30 124 124q43 -83 106 -116q56 -28 157 -28q40 0 117 2.5t118 2.5v-3q111 0 176 -53q53 -43 109 -151q31 -59 119 -99q-61 -25 -122 -106q-48 -68 -93 -136q-66 -63 -179 -63h-101 l-99 2q-119 3 -182 -20q-83 -33 -126 -126q-45 101 -131 129q-56 18 -190 17h-78q8 0 -45 -2h-31q-205 0 -288 154q-15 25 -50 91q-28 30 -88 60zM439 364q35 -33 89 -33q38 0 78 33v346h-55v-324h-56v324h-56v-346zM657 662h55v-324h56v324h55v48h-166v-48zM874 364 q35 -33 88 -33q38 0 78 33v323q-33 30 -83 30q-53 0 -83 -30v-323zM929 386v276h56v-276h-56zM1091 338h55v99h64l48 48v202q-38 23 -81 23h-86v-372zM1146 487v175h56v-175h-56zM1321 338h55v372h-55v-372zM1439 336h58v101h56v-101h56v351q-33 28 -84 28q-58 0 -86 -28 v-351zM1497 487v175q5 5 23 5h8q15 0 25 -5v-175h-56z" />
<glyph unicode="&#x26;" horiz-adv-x="1500" d="M5 439q0 129 76 229t242 143q-93 119 -83 227q20 167 135 273t284 106h402v-114h-377q-126 0 -204 -72t-89 -198q-5 -45 38 -119l680 -692q88 104 88 187v152h119v-122q0 -182 -119 -308l136 -139l-96 -93l-154 159q-91 -33 -171 -33h-516q-182 0 -287 119 q-104 111 -104 295zM124 409q0 -111 80.5 -190.5t191.5 -79.5h601l-560 563h-41q-129 0 -200.5 -82t-71.5 -211z" />
<glyph unicode="'" horiz-adv-x="515" d="M-18 1096l124 227h169l-123 -227h-170z" />
<glyph unicode="(" horiz-adv-x="638" d="M15 306v596q0 172 124 275q116 96 293 96h17v-111h-17q-121 0 -202 -82.5t-81 -203.5v-558q0 -119 81 -201t202 -82h17v-113h-17q-174 0 -295.5 106t-121.5 278z" />
<glyph unicode=")" horiz-adv-x="679" d="M15 35h18q121 0 202 82t81 201v558q0 121 -81 203.5t-202 82.5h-18v111h18q177 0 293 -96q124 -104 123 -275v-596q0 -172 -121 -278t-295 -106h-18v113z" />
<glyph unicode="*" horiz-adv-x="434" d="M3 586v134l383 -23l-290 255l103 99l256 -263l-23 341h144l-20 -341l250 263l103 -99l-290 -255l384 23v-134l-359 20l265 -230l-103 -98l-255 262l25 -363h-144l20 363l-253 -262l-103 98l265 230z" />
<glyph unicode="+" d="M109 535q91 43 118 99q98 205 288 204v3q33 0 97.5 -2.5t97.5 -2.5q126 0 176 20q76 30 124 124q43 -83 106 -116q56 -28 157 -28q40 0 117 2.5t118 2.5v-3q111 0 176 -53q53 -43 109 -151q31 -59 119 -99q-61 -25 -122 -106q-48 -68 -93 -136q-66 -63 -179 -63h-101 l-99 2q-119 3 -182 -20q-83 -33 -126 -126q-45 101 -131 129q-56 18 -190 17h-78q8 0 -45 -2h-31q-205 0 -288 154q-15 25 -50 91q-28 30 -88 60zM439 364q35 -33 89 -33q38 0 78 33v346h-55v-324h-56v324h-56v-346zM657 662h55v-324h56v324h55v48h-166v-48zM874 364 q35 -33 88 -33q38 0 78 33v323q-33 30 -83 30q-53 0 -83 -30v-323zM929 386v276h56v-276h-56zM1091 338h55v99h64l48 48v202q-38 23 -81 23h-86v-372zM1146 487v175h56v-175h-56zM1321 338h55v372h-55v-372zM1439 336h58v101h56v-101h56v351q-33 28 -84 28q-58 0 -86 -28 v-351zM1497 487v175q5 5 23 5h8q15 0 25 -5v-175h-56z" />
<glyph unicode="," horiz-adv-x="429" d="M-111 -71l124 228h169l-124 -228h-169z" />
<glyph unicode="-" d="M109 535q91 43 118 99q98 205 288 204v3q33 0 97.5 -2.5t97.5 -2.5q126 0 176 20q76 30 124 124q43 -83 106 -116q56 -28 157 -28q40 0 117 2.5t118 2.5v-3q111 0 176 -53q53 -43 109 -151q31 -59 119 -99q-61 -25 -122 -106q-48 -68 -93 -136q-66 -63 -179 -63h-101 l-99 2q-119 3 -182 -20q-83 -33 -126 -126q-45 101 -131 129q-56 18 -190 17h-78q8 0 -45 -2h-31q-205 0 -288 154q-15 25 -50 91q-28 30 -88 60zM439 364q35 -33 89 -33q38 0 78 33v346h-55v-324h-56v324h-56v-346zM657 662h55v-324h56v324h55v48h-166v-48zM874 364 q35 -33 88 -33q38 0 78 33v323q-33 30 -83 30q-53 0 -83 -30v-323zM929 386v276h56v-276h-56zM1091 338h55v99h64l48 48v202q-38 23 -81 23h-86v-372zM1146 487v175h56v-175h-56zM1321 338h55v372h-55v-372zM1439 336h58v101h56v-101h56v351q-33 28 -84 28q-58 0 -86 -28 v-351zM1497 487v175q5 5 23 5h8q15 0 25 -5v-175h-56z" />
<glyph unicode="." horiz-adv-x="436" d="M0 30v127h197v-127h-197z" />
<glyph unicode="/" horiz-adv-x="767" d="M15 -126l475 1457h149l-475 -1457h-149z" />
<glyph unicode="0" horiz-adv-x="1588" d="M15 407v394q0 167 107.5 269t276.5 102h578q167 0 275.5 -103.5t108.5 -267.5v-394q0 -164 -105 -274t-269 -110h-588q-167 0 -275.5 108.5t-108.5 275.5zM136 419q0 -116 73.5 -199.5t189.5 -83.5h578q58 0 144 38q-154 131 -473 376.5t-476 376.5q-35 -88 -36 -152 v-356zM253 1018q154 -126 473 -372.5t479 -377.5q35 88 35 151v356q0 116 -73.5 201t-189.5 85h-578q-58 0 -146 -43z" />
<glyph unicode="1" horiz-adv-x="409" d="M5 25v1154h139v-1154h-139z" />
<glyph unicode="2" horiz-adv-x="1391" d="M0 28l8 308q3 134 79.5 222t207.5 88l604 3q177 0 177 174q0 217 -192 217l-823 -2v139h861q139 0 217 -101q71 -91 71 -235q0 -91 -41 -169q-88 -164 -247 -164h-124l-172 2h-290q-192 0 -192 -189v-157h86q131 3 146 3h781v-139h-1157z" />
<glyph unicode="3" horiz-adv-x="1409" d="M114 23v139l745 -3q78 0 132 57t54 135q0 189 -181 189h-733v137l604 2q157 0 209 23q106 40 107 179q0 86 -52 138t-135 52h-738v113l770 -2q126 0 207 -89.5t81 -218.5q0 -144 -116 -253q111 -114 111 -262q0 -134 -75 -230q-83 -106 -215 -106h-775z" />
<glyph unicode="4" horiz-adv-x="1340" d="M15 886v303h121v-265q0 -116 76 -199.5t190 -83.5h578v548h118v-1169h-118v485l-578 -2q-172 0 -279.5 106t-107.5 277z" />
<glyph unicode="5" horiz-adv-x="1393" d="M0 558l8 308q3 131 79.5 221t207.5 90h862v-139l-821 2q-192 0 -192 -192v-154l778 3q126 0 207 -102.5t81 -230.5q0 -144 -71 -235q-78 -101 -217 -101h-861v139l823 -3q192 0 192 217q0 174 -177 175z" />
<glyph unicode="6" horiz-adv-x="1459" d="M5 361l3 505q0 131 78 221t209 90h884v-139l-846 2q-189 0 -192 -192l-2 -469q0 -98 43 -154q48 -63 149 -63l629 2q104 0 148 45.5t44 146.5q0 174 -177 174h-632v139q215 3 490 3h164q13 0 16 10q124 -20 192 -99q81 -93 80 -219q0 -144 -70 -235q-79 -101 -218 -101 l-702 -3q-177 56 -207 89q-83 86 -83 247z" />
<glyph unicode="7" horiz-adv-x="1244" d="M0 1020v139l1104 5l-599 -1139h-167l531 995h-869z" />
<glyph unicode="8" horiz-adv-x="1540" d="M0 851q0 129 81 220t207 91h737q129 0 208.5 -90t79.5 -221q0 -144 -116 -253q111 -114 111 -262q0 -129 -81 -220t-204 -91h-733q-126 0 -205.5 91t-79.5 220q0 149 111 262q-116 109 -116 253zM134 861q0 -91 54 -147.5t143 -56.5h651q88 0 142.5 56.5t54.5 147.5 q0 83 -52 136.5t-135 53.5h-671q-83 0 -135 -53.5t-52 -136.5zM139 328q0 -78 54 -135t130 -57h667q76 0 130 57t54 135q0 215 -182 215h-671q-182 0 -182 -215z" />
<glyph unicode="9" horiz-adv-x="1515" d="M5 838q0 144 71 235q78 101 217 101h146l205 3h353q139 0 218 -101q71 -91 70 -235l-2 -505q-5 -134 -81 -222.5t-207 -88.5h-884v139l846 -2q96 0 142.5 36.5t49.5 129.5l3 520q0 98 -44.5 145t-147.5 47l-629 -2q-104 0 -148 -45.5t-44 -146.5q0 -174 174 -174h687 v-139l-710 -3q-126 0 -205.5 90t-79.5 218z" />
<glyph unicode=":" horiz-adv-x="406" d="M0 30v127h197v-127h-197zM0 889v126h197v-126h-197z" />
<glyph unicode=";" horiz-adv-x="388" d="M-111 -71l124 228h166l-121 -228h-169zM23 889v126h174v-126h-174z" />
<glyph unicode="&#x3c;" horiz-adv-x="974" d="M8 591l681 568h89l2 -88l-578 -480l578 -477l-2 -89h-89z" />
<glyph unicode="=" d="M109 535q91 43 118 99q98 205 288 204v3q33 0 97.5 -2.5t97.5 -2.5q126 0 176 20q76 30 124 124q43 -83 106 -116q56 -28 157 -28q40 0 117 2.5t118 2.5v-3q111 0 176 -53q53 -43 109 -151q31 -59 119 -99q-61 -25 -122 -106q-48 -68 -93 -136q-66 -63 -179 -63h-101 l-99 2q-119 3 -182 -20q-83 -33 -126 -126q-45 101 -131 129q-56 18 -190 17h-78q8 0 -45 -2h-31q-205 0 -288 154q-15 25 -50 91q-28 30 -88 60zM439 364q35 -33 89 -33q38 0 78 33v346h-55v-324h-56v324h-56v-346zM657 662h55v-324h56v324h55v48h-166v-48zM874 364 q35 -33 88 -33q38 0 78 33v323q-33 30 -83 30q-53 0 -83 -30v-323zM929 386v276h56v-276h-56zM1091 338h55v99h64l48 48v202q-38 23 -81 23h-86v-372zM1146 487v175h56v-175h-56zM1321 338h55v372h-55v-372zM1439 336h58v101h56v-101h56v351q-33 28 -84 28q-58 0 -86 -28 v-351zM1497 487v175q5 5 23 5h8q15 0 25 -5v-175h-56z" />
<glyph unicode="&#x3e;" horiz-adv-x="957" d="M-5 114l581 477l-581 480l2 88h89l682 -568l-682 -566h-89z" />
<glyph unicode="?" d="M109 535q91 43 118 99q98 205 288 204v3q33 0 97.5 -2.5t97.5 -2.5q126 0 176 20q76 30 124 124q43 -83 106 -116q56 -28 157 -28q40 0 117 2.5t118 2.5v-3q111 0 176 -53q53 -43 109 -151q31 -59 119 -99q-61 -25 -122 -106q-48 -68 -93 -136q-66 -63 -179 -63h-101 l-99 2q-119 3 -182 -20q-83 -33 -126 -126q-45 101 -131 129q-56 18 -190 17h-78q8 0 -45 -2h-31q-205 0 -288 154q-15 25 -50 91q-28 30 -88 60zM439 364q35 -33 89 -33q38 0 78 33v346h-55v-324h-56v324h-56v-346zM657 662h55v-324h56v324h55v48h-166v-48zM874 364 q35 -33 88 -33q38 0 78 33v323q-33 30 -83 30q-53 0 -83 -30v-323zM929 386v276h56v-276h-56zM1091 338h55v99h64l48 48v202q-38 23 -81 23h-86v-372zM1146 487v175h56v-175h-56zM1321 338h55v372h-55v-372zM1439 336h58v101h56v-101h56v351q-33 28 -84 28q-58 0 -86 -28 v-351zM1497 487v175q5 5 23 5h8q15 0 25 -5v-175h-56z" />
<glyph unicode="@" horiz-adv-x="3000" d="M5 343q0 91 63 218l106 204q38 101 81 200q88 199 318 298q192 83 437 83h1909q38 0 51 -18q2 -23 2 -58q0 -288 -421 -313q-8 -141 -117 -230q-93 -76 -245 -98q-8 -86 -27 -134q-48 -116 -220 -162q-86 -23 -288 -35q-23 -164 -162 -240q-104 -56 -346 -73 q-68 -5 -366 -10q-119 -83 -485 -84q-154 0 -191 106q-20 56 -18 235q-81 35 -81 111zM139 404q0 -61 134 -61q40 0 60 11q15 3 15 -13q0 -30 -55 -58q-45 -23 -83 -28l-5 -151q8 -104 63 -119q18 -3 45 -3q222 0 433 101t355 273q38 45 172 46q66 0 194.5 -3t194.5 -3 q412 0 411 165q0 25 -10 43q-8 -154 -417 -155q-48 0 -436 -2q-15 13 -41 23q10 15 99 15q81 0 80 0l117 -3h197q212 0 293 38q43 20 88 101q-23 13 -63 13h-573q-172 0 -172 35q0 51 187 51h575q139 0 245 27q167 43 167 142q0 25 -13 43v-10q0 -152 -416 -154l-619 -3 q-18 15 -43 23q13 18 101 18l293 -3l293 -2q306 -3 364 118q3 8 12 28q-25 13 -65 13h-793q-184 0 -185 37q0 53 185 54h911q141 0 248 27q164 43 164 139q0 28 -23 33q-20 -146 -414 -146l-929 -3q-15 15 -41 23q13 18 101 17q-3 0 440 -2l442 -3q306 -3 371 119h-1876 q-215 0 -384 -136q-157 -126 -235 -336q-10 -28 -10 -43q0 -38 28 -38q15 0 48 18q237 131 467 131q71 0 144 -10q-15 -91 -104 -114q-30 -8 -156 -12q-81 -3 -81 -38q0 -25 28 -56q13 3 22 3q28 0 28 -20q0 -25 -35.5 -40.5t-65.5 -15.5q-51 0 -92.5 33t-41.5 81 q-53 -28 -134 -28q-18 0 -96 2q-109 -179 -108 -232zM967 96l190 -3q126 -3 232 31q154 46 154 139q0 18 -10 30q-10 -104 -207 -134q-98 -15 -281 -15h-15zM1078 177h66q334 0 369 131q-35 10 -66 10l-192 -2q-63 -56 -177 -139z" />
<glyph unicode="A" horiz-adv-x="1598" d="M5 439q0 164 112.5 270.5t278.5 106.5h846q-25 124 -94.5 185.5t-167.5 61.5h-770v114h770q167 0 275.5 -108.5t108.5 -275.5l-3 -770h-119v679h-846q-129 0 -200.5 -82t-71.5 -211q0 -111 80.5 -190.5t191.5 -79.5h559v-114h-559q-182 0 -287 119q-104 111 -104 295z " />
<glyph unicode="B" horiz-adv-x="1489" d="M15 28v737q0 167 112.5 282t279.5 115h565q129 0 208.5 -91t79.5 -220q0 -144 -116 -253q111 -114 111 -262q0 -134 -78.5 -222.5t-209.5 -88.5l-611 3v111l581 -3q78 0 132.5 57t54.5 135q0 215 -182 215h-586v114h576q88 0 142.5 56.5t54.5 147.5q0 83 -52 136.5 t-135 53.5h-111l-157 -3h-267q-111 0 -192 -76t-81 -187v-757h-119z" />
<glyph unicode="C" horiz-adv-x="1351" d="M15 407v394q0 167 107.5 269t276.5 102h859v-111h-859q-114 0 -188.5 -85t-74.5 -201v-356q0 -116 74.5 -199.5t188.5 -83.5h859v-113h-859q-169 0 -276.5 106t-107.5 278z" />
<glyph unicode="D" horiz-adv-x="1578" d="M15 384v391q0 172 106 279.5t278 107.5l611 -3l-2 -111h-609q-116 0 -189.5 -83.5t-73.5 -199.5v-358q0 -116 71 -192t187 -76h563q111 0 192 75.5t81 187.5v921h118v-904q0 -167 -112 -280.5t-279 -113.5h-563q-167 0 -273 97.5t-106 261.5z" />
<glyph unicode="E" horiz-adv-x="1333" d="M38 407v386q0 167 108.5 275.5t277.5 108.5h776v-114h-776q-114 0 -189.5 -84.5t-75.5 -198.5v-144l1033 -2v-114l-1033 3v-104q0 -114 76 -198.5t189 -84.5h776v-113h-776q-169 0 -277.5 108.5t-108.5 275.5z" />
<glyph unicode="F" horiz-adv-x="1300" d="M38 793q0 167 110 275.5t276 108.5h776v-114h-776q-114 0 -189.5 -84.5t-75.5 -198.5v-270l1033 -2v-114l-1033 2v-373h-119z" />
<glyph unicode="G" horiz-adv-x="1489" d="M15 399v394q0 172 106 278t278 106h856v-114h-856q-116 0 -189.5 -83.5t-73.5 -199.5v-373q0 -114 72 -191t186 -80l576 -10h5q194 0 209 225v18q0 91 -48 149q-53 63 -154 63h-384l3 111l404 2q149 0 231 -92t82 -241q0 -336 -313 -336h-308h-71q-53 -2 -85 -2h-18h-129 q-172 0 -275.5 103.5t-103.5 272.5z" />
<glyph unicode="H" horiz-adv-x="1590" d="M5 25v1154h119v-363h1108v363h119v-1154h-119v677h-1108v-677h-119z" />
<glyph unicode="I" horiz-adv-x="409" d="M5 25v1154h139v-1154h-139z" />
<glyph unicode="J" horiz-adv-x="1219" d="M3 23v113h601q116 0 191.5 83.5t75.5 199.5v758h119l2 -770q0 -167 -109.5 -275.5t-278.5 -108.5h-601z" />
<glyph unicode="K" horiz-adv-x="1472" d="M5 25v1134h119v-502l1096 502h91v-83l-1061 -478l1061 -489v-84h-91l-1096 518v-518h-119z" />
<glyph unicode="L" horiz-adv-x="1267" d="M38 407l2 770h119v-758q0 -116 74.5 -199.5t190.5 -83.5h776v-113h-776q-167 0 -276.5 108.5t-109.5 275.5z" />
<glyph unicode="M" horiz-adv-x="1979" d="M5 25v758q0 164 111 270t278 106h957q167 0 278 -113.5t111 -280.5v-740h-116v758q0 111 -79.5 186.5t-193.5 75.5h-432v-1020h-118v1020h-407q-114 0 -193.5 -75.5t-79.5 -186.5v-758h-116z" />
<glyph unicode="N" horiz-adv-x="1588" d="M5 25v758q0 164 112.5 270t278.5 106h564q167 0 279 -113.5t112 -280.5v-740h-119v758q0 111 -80.5 186.5t-191.5 75.5h-564q-111 0 -191.5 -75.5t-80.5 -186.5v-758h-119z" />
<glyph unicode="O" horiz-adv-x="1588" d="M15 407v394q0 167 107.5 269t276.5 102h578q167 0 275.5 -103.5t108.5 -267.5v-394q0 -164 -105 -274t-269 -110h-588q-167 0 -275.5 108.5t-108.5 275.5zM136 419q0 -116 73.5 -199.5t189.5 -83.5h578q116 0 189.5 83.5t73.5 199.5v356q0 116 -73.5 201t-189.5 85h-578 q-116 0 -189.5 -85t-73.5 -201v-356z" />
<glyph unicode="P" horiz-adv-x="1522" d="M15 15v750q0 167 112.5 280.5t279.5 113.5h563q167 0 272.5 -97t105.5 -261v-117q0 -172 -105.5 -277.5t-277.5 -105.5l-548 2l2 111h546q114 0 188 83.5t74 199.5v78q0 116 -70.5 193t-186.5 77h-563q-111 0 -192 -75.5t-81 -186.5v-768h-119z" />
<glyph unicode="Q" horiz-adv-x="1638" d="M15 407v394q0 167 107.5 269t273.5 102h579q167 0 275.5 -103.5t108.5 -267.5v-394q0 -109 -58 -210l154 -146l-96 -91l-144 138q-108 -75 -227 -75h-3h-589q-167 0 -274 108.5t-107 275.5zM136 419q0 -116 73.5 -199.5t186.5 -83.5h579q68 0 154 48l-298 283l96 94 l283 -276q28 83 27 134v356q0 116 -73 201t-189 85h-579q-114 0 -187 -85t-73 -201v-356z" />
<glyph unicode="R" horiz-adv-x="1563" d="M15 28v737q0 167 112.5 282t279.5 115h563q182 0 280 -112.5t98 -296.5q0 -172 -113.5 -273t-287.5 -101q-18 0 -273 5l634 -273v-83h-136l-824 356v108h581q301 0 301 293q0 129 -81 197.5t-210 68.5h-111l-156 -3h-265q-111 0 -192 -76t-81 -187v-757h-119z" />
<glyph unicode="S" horiz-adv-x="1699" d="M5 23v113h472q114 0 184.5 83.5t75.5 199.5q2 20 1.5 66.5t-1.5 120.5l-2 187v9q0 158 107 265q110 110 274 110h470v-114h-470q-116 0 -189 -88.5t-73 -194.5v-80v-74q2 -36 2 -59v-14v-146q0 -164 -107.5 -274t-271.5 -110h-472z" />
<glyph unicode="T" horiz-adv-x="1517" d="M-25 1045v114h1386v-114h-634v-1020h-118v1020h-634z" />
<glyph unicode="U" horiz-adv-x="1578" d="M5 402v757h119v-757q0 -111 80.5 -187t191.5 -76h564q111 0 191.5 75.5t80.5 187.5v757h119v-740q0 -167 -112 -280.5t-279 -113.5h-564q-164 0 -277.5 107.5t-113.5 269.5z" />
<glyph unicode="V" horiz-adv-x="1492" d="M-3 1086l3 73h88l566 -990l566 990h88l3 -71l-594 -1063h-124z" />
<glyph unicode="W" horiz-adv-x="1967" d="M5 402v757h116v-757q0 -111 79.5 -187t193.5 -76h407v1020h118v-1020h432q114 0 193.5 75.5t79.5 187.5v757h116v-740q0 -167 -111 -280.5t-278 -113.5h-957q-164 0 -276.5 107.5t-112.5 269.5z" />
<glyph unicode="X" horiz-adv-x="1505" d="M-3 114l564 477l-564 480l3 88h86l568 -485l568 485h86l3 -88l-564 -480l564 -477l-3 -89h-86l-568 485l-568 -485h-86z" />
<glyph unicode="Y" horiz-adv-x="1467" d="M-3 1071l3 88h86l568 -485l568 485h86l3 -88l-609 -520v-526h-119v548z" />
<glyph unicode="Z" horiz-adv-x="1547" d="M33 25v137l1199 883h-1199v114h1386v-126l-1187 -884h1187v-114z" />
<glyph unicode="[" horiz-adv-x="638" d="M15 306v596q0 172 124 275q116 96 293 96h17v-111h-17q-121 0 -202 -82.5t-81 -203.5v-558q0 -119 81 -201t202 -82h17v-113h-17q-174 0 -295.5 106t-121.5 278z" />
<glyph unicode="\" horiz-adv-x="767" d="M15 1331h149l475 -1457h-149z" />
<glyph unicode="]" horiz-adv-x="679" d="M15 35h18q121 0 202 82t81 201v558q0 121 -81 203.5t-202 82.5h-18v111h18q177 0 293 -96q124 -104 123 -275v-596q0 -172 -121 -278t-295 -106h-18v113z" />
<glyph unicode="^" d="M109 535q91 43 118 99q98 205 288 204v3q33 0 97.5 -2.5t97.5 -2.5q126 0 176 20q76 30 124 124q43 -83 106 -116q56 -28 157 -28q40 0 117 2.5t118 2.5v-3q111 0 176 -53q53 -43 109 -151q31 -59 119 -99q-61 -25 -122 -106q-48 -68 -93 -136q-66 -63 -179 -63h-101 l-99 2q-119 3 -182 -20q-83 -33 -126 -126q-45 101 -131 129q-56 18 -190 17h-78q8 0 -45 -2h-31q-205 0 -288 154q-15 25 -50 91q-28 30 -88 60zM439 364q35 -33 89 -33q38 0 78 33v346h-55v-324h-56v324h-56v-346zM657 662h55v-324h56v324h55v48h-166v-48zM874 364 q35 -33 88 -33q38 0 78 33v323q-33 30 -83 30q-53 0 -83 -30v-323zM929 386v276h56v-276h-56zM1091 338h55v99h64l48 48v202q-38 23 -81 23h-86v-372zM1146 487v175h56v-175h-56zM1321 338h55v372h-55v-372zM1439 336h58v101h56v-101h56v351q-33 28 -84 28q-58 0 -86 -28 v-351zM1497 487v175q5 5 23 5h8q15 0 25 -5v-175h-56z" />
<glyph unicode="_" d="M109 535q91 43 118 99q98 205 288 204v3q33 0 97.5 -2.5t97.5 -2.5q126 0 176 20q76 30 124 124q43 -83 106 -116q56 -28 157 -28q40 0 117 2.5t118 2.5v-3q111 0 176 -53q53 -43 109 -151q31 -59 119 -99q-61 -25 -122 -106q-48 -68 -93 -136q-66 -63 -179 -63h-101 l-99 2q-119 3 -182 -20q-83 -33 -126 -126q-45 101 -131 129q-56 18 -190 17h-78q8 0 -45 -2h-31q-205 0 -288 154q-15 25 -50 91q-28 30 -88 60zM439 364q35 -33 89 -33q38 0 78 33v346h-55v-324h-56v324h-56v-346zM657 662h55v-324h56v324h55v48h-166v-48zM874 364 q35 -33 88 -33q38 0 78 33v323q-33 30 -83 30q-53 0 -83 -30v-323zM929 386v276h56v-276h-56zM1091 338h55v99h64l48 48v202q-38 23 -81 23h-86v-372zM1146 487v175h56v-175h-56zM1321 338h55v372h-55v-372zM1439 336h58v101h56v-101h56v351q-33 28 -84 28q-58 0 -86 -28 v-351zM1497 487v175q5 5 23 5h8q15 0 25 -5v-175h-56z" />
<glyph unicode="`" d="M109 535q91 43 118 99q98 205 288 204v3q33 0 97.5 -2.5t97.5 -2.5q126 0 176 20q76 30 124 124q43 -83 106 -116q56 -28 157 -28q40 0 117 2.5t118 2.5v-3q111 0 176 -53q53 -43 109 -151q31 -59 119 -99q-61 -25 -122 -106q-48 -68 -93 -136q-66 -63 -179 -63h-101 l-99 2q-119 3 -182 -20q-83 -33 -126 -126q-45 101 -131 129q-56 18 -190 17h-78q8 0 -45 -2h-31q-205 0 -288 154q-15 25 -50 91q-28 30 -88 60zM439 364q35 -33 89 -33q38 0 78 33v346h-55v-324h-56v324h-56v-346zM657 662h55v-324h56v324h55v48h-166v-48zM874 364 q35 -33 88 -33q38 0 78 33v323q-33 30 -83 30q-53 0 -83 -30v-323zM929 386v276h56v-276h-56zM1091 338h55v99h64l48 48v202q-38 23 -81 23h-86v-372zM1146 487v175h56v-175h-56zM1321 338h55v372h-55v-372zM1439 336h58v101h56v-101h56v351q-33 28 -84 28q-58 0 -86 -28 v-351zM1497 487v175q5 5 23 5h8q15 0 25 -5v-175h-56z" />
<glyph unicode="a" horiz-adv-x="1598" d="M5 439q0 164 112.5 270.5t278.5 106.5h846q-25 124 -94.5 185.5t-167.5 61.5h-770v114h770q167 0 275.5 -108.5t108.5 -275.5l-3 -770h-119v679h-846q-129 0 -200.5 -82t-71.5 -211q0 -111 80.5 -190.5t191.5 -79.5h559v-114h-559q-182 0 -287 119q-104 111 -104 295z " />
<glyph unicode="b" horiz-adv-x="1570" d="M15 419v1149h119v-1166q0 -111 80.5 -187t192.5 -76h563q116 0 186.5 75.5t70.5 192.5v358q0 116 -73 199.5t-189 83.5h-609l-2 111l611 3q172 0 277.5 -107.5t105.5 -279.5v-391q0 -164 -105.5 -261.5t-272.5 -97.5h-563q-167 0 -279.5 114t-112.5 280z" />
<glyph unicode="c" horiz-adv-x="1484" d="M5 407v394q0 167 107.5 269t276.5 102h858v-111h-858q-114 0 -188.5 -85t-74.5 -201v-356q0 -116 74.5 -199.5t188.5 -83.5h858v-113h-858q-169 0 -276.5 106t-107.5 278z" />
<glyph unicode="d" horiz-adv-x="1583" d="M15 384v391q0 172 106 279.5t278 107.5l611 -3l-2 -111h-609q-116 0 -189.5 -83.5t-73.5 -199.5v-358q0 -116 71 -192t187 -76h563q111 0 192 75.5t81 187.5v1166h118v-1149q0 -167 -112 -280.5t-279 -113.5h-563q-167 0 -273 97.5t-106 261.5z" />
<glyph unicode="e" horiz-adv-x="1603" d="M5 407v394q0 172 103.5 274t275.5 102h603q179 0 283 -116q96 -109 96 -291q0 -167 -111 -271.5t-280 -104.5h-387v114h387q129 0 200.5 80.5t71.5 212.5q1 121 -75 197q-74 74 -191 73h-6l-594 -8q-114 -3 -184.5 -78.5t-70.5 -191.5v-374q0 -116 73.5 -199.5 t189.5 -83.5h853v-113h-853q-172 0 -278 107t-106 277z" />
<glyph unicode="f" horiz-adv-x="818" d="M38 1202q0 169 115 276.5t286 107.5h207v-114h-207q-116 0 -194 -83t-78 -200v-373h472v-114h-472v-679h-127z" />
<glyph unicode="g" horiz-adv-x="1585" d="M15 407v394q0 164 106 261t273 97h563q169 0 280 -112.5t111 -281.5v-113q0 -439 -7 -675q-5 -167 -111 -275.5t-273 -108.5h-770v114h770q111 0 189 86q71 83 74 197l10 793v9q0 113 -76 182q-78 71 -197 71h-563q-116 0 -187 -77t-71 -193v-356q0 -116 74.5 -199.5 t188.5 -83.5h545l3 -111l-548 -2q-172 0 -278 107t-106 277z" />
<glyph unicode="h" horiz-adv-x="1452" d="M15 20v1548h119v-409l709 3q172 0 277 -106t105 -281v-755h-119v745q0 114 -75.5 198.5t-187.5 84.5h-709v-1028h-119z" />
<glyph unicode="i" horiz-adv-x="664" d="M258 25v1119h138v-1119h-138zM258 1381v109h138v-109h-138z" />
<glyph unicode="j" horiz-adv-x="724" d="M3 -293h73q119 0 201 82t82 201v1162h126l2 -1175q0 -172 -118.5 -278t-292.5 -106h-73v114zM346 1381v109h126v-109h-126z" />
<glyph unicode="k" horiz-adv-x="1338" d="M5 25v1543h119v-894l954 485h89l2 -103l-914 -458l914 -469l-2 -104h-89l-954 500v-500h-119z" />
<glyph unicode="l" horiz-adv-x="752" d="M38 407l2 1179h127v-1167q0 -119 79.5 -201t197.5 -82h142v-113h-142q-172 0 -289 106t-117 278z" />
<glyph unicode="m" horiz-adv-x="1979" d="M5 25v758q0 164 111 270t278 106h957q167 0 278 -113.5t111 -280.5v-740h-116v758q0 111 -79.5 186.5t-193.5 75.5h-432v-1020h-118v1020h-407q-114 0 -193.5 -75.5t-79.5 -186.5v-758h-116z" />
<glyph unicode="n" horiz-adv-x="1588" d="M38 25v758q0 164 112.5 270t278.5 106h563q167 0 279.5 -113.5t112.5 -280.5v-740h-119v758q0 111 -80.5 186.5t-192.5 75.5h-563q-111 0 -191.5 -75.5t-80.5 -186.5v-758h-119z" />
<glyph unicode="o" horiz-adv-x="1588" d="M5 407v394q0 167 107.5 269t276.5 102h578q167 0 275.5 -103.5t108.5 -267.5v-394q0 -164 -105 -274t-269 -110h-588q-167 0 -275.5 108.5t-108.5 275.5zM126 419q0 -116 73.5 -199.5t189.5 -83.5h578q116 0 189.5 83.5t73.5 199.5v356q0 116 -73.5 201t-189.5 85h-578 q-116 0 -189.5 -85t-73.5 -201v-356z" />
<glyph unicode="p" horiz-adv-x="1568" d="M15 -263v1028q0 167 112.5 280.5t279.5 113.5h563q167 0 272.5 -97t105.5 -261v-394q0 -172 -105.5 -278t-277.5 -106l-548 2l2 111h546q114 0 188 83.5t74 199.5v356q0 116 -70.5 193t-186.5 77h-563q-111 0 -192 -75.5t-81 -186.5v-1046h-119z" />
<glyph unicode="q" horiz-adv-x="1588" d="M15 407v394q0 164 106 261t273 97h563q167 0 279 -113.5t112 -280.5v-1028h-118v1046q0 111 -81 186.5t-192 75.5h-563q-116 0 -187 -77t-71 -193v-356q0 -116 74.5 -199.5t188.5 -83.5h545l3 -111l-548 -2q-172 0 -278 107t-106 277z" />
<glyph unicode="r" horiz-adv-x="1300" d="M71 793q0 167 109.5 275.5t276.5 108.5h775v-114h-775q-114 0 -189.5 -84.5t-75.5 -198.5v-757h-119z" />
<glyph unicode="s" horiz-adv-x="1383" d="M8 866q0 129 79.5 220t207.5 91h862v-114l-821 3q-194 0 -195 -192q0 -199 175 -200l606 -2q129 0 208.5 -90t79.5 -218q0 -144 -71 -235q-78 -101 -217 -101h-861v113l820 -2q194 0 195 217q0 199 -177 200l-604 2q-129 0 -208 89.5t-79 218.5z" />
<glyph unicode="t" horiz-adv-x="765" d="M38 407l2 1179h127v-422l411 -2v-111h-411v-632q0 -119 79.5 -201t197.5 -82h142v-113h-142q-172 0 -289 106t-117 278z" />
<glyph unicode="u" horiz-adv-x="1583" d="M38 402v757h119v-757q0 -111 80.5 -187t191.5 -76h563q111 0 192 75.5t81 187.5v757h119v-740q0 -167 -112.5 -280.5t-279.5 -113.5h-563q-167 0 -279 106t-112 271z" />
<glyph unicode="v" horiz-adv-x="1487" d="M-3 1086l3 73h88l566 -990l566 990h88l3 -71l-594 -1063h-124z" />
<glyph unicode="w" d="M5 402v757h116v-757q0 -111 79.5 -187t193.5 -76h407v1020h118v-1020h432q114 0 193.5 75.5t79.5 187.5v757h116v-740q0 -167 -111 -280.5t-278 -113.5h-957q-167 0 -278 106t-111 271z" />
<glyph unicode="x" horiz-adv-x="1505" d="M-3 114l564 477l-564 480l3 88h86l568 -485l568 485h86l3 -88l-564 -480l564 -477l-3 -89h-86l-568 485l-568 -485h-86z" />
<glyph unicode="y" horiz-adv-x="1601" d="M5 412q0 3 3 396l2 369h119l-5 -765q0 -114 79.5 -188.5t192.5 -74.5h554v-114h-554q-167 0 -279 106t-112 271zM210 -293h770q116 0 189 83.5t73 199.5v1182l119 5l3 -1200q0 -167 -108.5 -275.5t-275.5 -108.5h-770v114z" />
<glyph unicode="z" horiz-adv-x="1547" d="M0 25v137l1200 883h-1200v114h1386v-126l-1187 -884h1187v-114z" />
<glyph unicode="{" horiz-adv-x="638" d="M15 306v596q0 172 124 275q116 96 293 96h17v-111h-17q-121 0 -202 -82.5t-81 -203.5v-558q0 -119 81 -201t202 -82h17v-113h-17q-174 0 -295.5 106t-121.5 278z" />
<glyph unicode="|" horiz-adv-x="434" d="M5 -126v1457h164v-1457h-164z" />
<glyph unicode="}" horiz-adv-x="679" d="M15 35h18q121 0 202 82t81 201v558q0 121 -81 203.5t-202 82.5h-18v111h18q177 0 293 -96q124 -104 123 -275v-596q0 -172 -121 -278t-295 -106h-18v113z" />
<glyph unicode="~" d="M109 535q91 43 118 99q98 205 288 204v3q33 0 97.5 -2.5t97.5 -2.5q126 0 176 20q76 30 124 124q43 -83 106 -116q56 -28 157 -28q40 0 117 2.5t118 2.5v-3q111 0 176 -53q53 -43 109 -151q31 -59 119 -99q-61 -25 -122 -106q-48 -68 -93 -136q-66 -63 -179 -63h-101 l-99 2q-119 3 -182 -20q-83 -33 -126 -126q-45 101 -131 129q-56 18 -190 17h-78q8 0 -45 -2h-31q-205 0 -288 154q-15 25 -50 91q-28 30 -88 60zM439 364q35 -33 89 -33q38 0 78 33v346h-55v-324h-56v324h-56v-346zM657 662h55v-324h56v324h55v48h-166v-48zM874 364 q35 -33 88 -33q38 0 78 33v323q-33 30 -83 30q-53 0 -83 -30v-323zM929 386v276h56v-276h-56zM1091 338h55v99h64l48 48v202q-38 23 -81 23h-86v-372zM1146 487v175h56v-175h-56zM1321 338h55v372h-55v-372zM1439 336h58v101h56v-101h56v351q-33 28 -84 28q-58 0 -86 -28 v-351zM1497 487v175q5 5 23 5h8q15 0 25 -5v-175h-56z" />
<glyph unicode="&#xad;" d="M109 535q91 43 118 99q98 205 288 204v3q33 0 97.5 -2.5t97.5 -2.5q126 0 176 20q76 30 124 124q43 -83 106 -116q56 -28 157 -28q40 0 117 2.5t118 2.5v-3q111 0 176 -53q53 -43 109 -151q31 -59 119 -99q-61 -25 -122 -106q-48 -68 -93 -136q-66 -63 -179 -63h-101 l-99 2q-119 3 -182 -20q-83 -33 -126 -126q-45 101 -131 129q-56 18 -190 17h-78q8 0 -45 -2h-31q-205 0 -288 154q-15 25 -50 91q-28 30 -88 60zM439 364q35 -33 89 -33q38 0 78 33v346h-55v-324h-56v324h-56v-346zM657 662h55v-324h56v324h55v48h-166v-48zM874 364 q35 -33 88 -33q38 0 78 33v323q-33 30 -83 30q-53 0 -83 -30v-323zM929 386v276h56v-276h-56zM1091 338h55v99h64l48 48v202q-38 23 -81 23h-86v-372zM1146 487v175h56v-175h-56zM1321 338h55v372h-55v-372zM1439 336h58v101h56v-101h56v351q-33 28 -84 28q-58 0 -86 -28 v-351zM1497 487v175q5 5 23 5h8q15 0 25 -5v-175h-56z" />
<glyph unicode="&#x2000;" horiz-adv-x="793" />
<glyph unicode="&#x2001;" horiz-adv-x="1586" />
<glyph unicode="&#x2002;" horiz-adv-x="793" />
<glyph unicode="&#x2003;" horiz-adv-x="1586" />
<glyph unicode="&#x2004;" horiz-adv-x="528" />
<glyph unicode="&#x2005;" horiz-adv-x="396" />
<glyph unicode="&#x2006;" horiz-adv-x="264" />
<glyph unicode="&#x2007;" horiz-adv-x="264" />
<glyph unicode="&#x2008;" horiz-adv-x="198" />
<glyph unicode="&#x2009;" horiz-adv-x="317" />
<glyph unicode="&#x200a;" horiz-adv-x="88" />
<glyph unicode="&#x2010;" d="M109 535q91 43 118 99q98 205 288 204v3q33 0 97.5 -2.5t97.5 -2.5q126 0 176 20q76 30 124 124q43 -83 106 -116q56 -28 157 -28q40 0 117 2.5t118 2.5v-3q111 0 176 -53q53 -43 109 -151q31 -59 119 -99q-61 -25 -122 -106q-48 -68 -93 -136q-66 -63 -179 -63h-101 l-99 2q-119 3 -182 -20q-83 -33 -126 -126q-45 101 -131 129q-56 18 -190 17h-78q8 0 -45 -2h-31q-205 0 -288 154q-15 25 -50 91q-28 30 -88 60zM439 364q35 -33 89 -33q38 0 78 33v346h-55v-324h-56v324h-56v-346zM657 662h55v-324h56v324h55v48h-166v-48zM874 364 q35 -33 88 -33q38 0 78 33v323q-33 30 -83 30q-53 0 -83 -30v-323zM929 386v276h56v-276h-56zM1091 338h55v99h64l48 48v202q-38 23 -81 23h-86v-372zM1146 487v175h56v-175h-56zM1321 338h55v372h-55v-372zM1439 336h58v101h56v-101h56v351q-33 28 -84 28q-58 0 -86 -28 v-351zM1497 487v175q5 5 23 5h8q15 0 25 -5v-175h-56z" />
<glyph unicode="&#x2011;" d="M109 535q91 43 118 99q98 205 288 204v3q33 0 97.5 -2.5t97.5 -2.5q126 0 176 20q76 30 124 124q43 -83 106 -116q56 -28 157 -28q40 0 117 2.5t118 2.5v-3q111 0 176 -53q53 -43 109 -151q31 -59 119 -99q-61 -25 -122 -106q-48 -68 -93 -136q-66 -63 -179 -63h-101 l-99 2q-119 3 -182 -20q-83 -33 -126 -126q-45 101 -131 129q-56 18 -190 17h-78q8 0 -45 -2h-31q-205 0 -288 154q-15 25 -50 91q-28 30 -88 60zM439 364q35 -33 89 -33q38 0 78 33v346h-55v-324h-56v324h-56v-346zM657 662h55v-324h56v324h55v48h-166v-48zM874 364 q35 -33 88 -33q38 0 78 33v323q-33 30 -83 30q-53 0 -83 -30v-323zM929 386v276h56v-276h-56zM1091 338h55v99h64l48 48v202q-38 23 -81 23h-86v-372zM1146 487v175h56v-175h-56zM1321 338h55v372h-55v-372zM1439 336h58v101h56v-101h56v351q-33 28 -84 28q-58 0 -86 -28 v-351zM1497 487v175q5 5 23 5h8q15 0 25 -5v-175h-56z" />
<glyph unicode="&#x2012;" d="M109 535q91 43 118 99q98 205 288 204v3q33 0 97.5 -2.5t97.5 -2.5q126 0 176 20q76 30 124 124q43 -83 106 -116q56 -28 157 -28q40 0 117 2.5t118 2.5v-3q111 0 176 -53q53 -43 109 -151q31 -59 119 -99q-61 -25 -122 -106q-48 -68 -93 -136q-66 -63 -179 -63h-101 l-99 2q-119 3 -182 -20q-83 -33 -126 -126q-45 101 -131 129q-56 18 -190 17h-78q8 0 -45 -2h-31q-205 0 -288 154q-15 25 -50 91q-28 30 -88 60zM439 364q35 -33 89 -33q38 0 78 33v346h-55v-324h-56v324h-56v-346zM657 662h55v-324h56v324h55v48h-166v-48zM874 364 q35 -33 88 -33q38 0 78 33v323q-33 30 -83 30q-53 0 -83 -30v-323zM929 386v276h56v-276h-56zM1091 338h55v99h64l48 48v202q-38 23 -81 23h-86v-372zM1146 487v175h56v-175h-56zM1321 338h55v372h-55v-372zM1439 336h58v101h56v-101h56v351q-33 28 -84 28q-58 0 -86 -28 v-351zM1497 487v175q5 5 23 5h8q15 0 25 -5v-175h-56z" />
<glyph unicode="&#x2013;" horiz-adv-x="1193" d="M109 535q52 43 67 99q56 205 164 204v3q18 0 55 -2.5t55 -2.5q72 0 100 20q43 30 71 124q24 -83 60 -116q32 -28 89 -28q23 0 66.5 2.5t67.5 2.5v-3q63 0 100 -53q30 -43 61 -151q18 -59 68 -99q-35 -25 -69 -106q-28 -68 -53 -136q-38 -63 -102 -63h-57l-56 2 q-68 3 -104 -20q-47 -33 -71 -126q-26 101 -75 129q-31 18 -108 17h-44q5 0 -25 -2h-18q-116 0 -164 154q-8 25 -28 91q-16 30 -50 60zM296 364q20 -33 51 -33q22 0 44 33v346h-31v-324h-32v324h-32v-346zM420 662h31v-324h32v324h32v48h-95v-48zM543 364q20 -33 50 -33 q22 0 45 33v323q-19 30 -47 30q-30 0 -48 -30v-323zM575 386v276h32v-276h-32zM667 338h31v99h36l28 48v202q-22 23 -46 23h-49v-372zM698 487v175h32v-175h-32zM797 338h32v372h-32v-372zM864 336h33v101h32v-101h32v351q-19 28 -48 28q-33 0 -49 -28v-351zM897 487v175 q3 5 13 5h5q8 0 14 -5v-175h-32z" />
<glyph unicode="&#x2014;" horiz-adv-x="2217" d="M109 535q103 43 134 99q111 205 327 204v3q38 0 111 -2.5t111 -2.5q143 0 200 20q86 30 140 124q49 -83 121 -116q63 -28 178 -28q46 0 133.5 2.5t133.5 2.5v-3q126 0 200 -53q60 -43 124 -151q35 -59 135 -99q-69 -25 -139 -106q-54 -68 -105 -136q-75 -63 -204 -63 h-114l-113 2q-135 3 -206 -20q-95 -33 -144 -126q-51 101 -148 129q-64 18 -216 17h-89q9 0 -51 -2h-35q-233 0 -327 154q-17 25 -57 91q-32 30 -100 60zM484 364q40 -33 101 -33q43 0 89 33v346h-63v-324h-64v324h-63v-346zM731 662h63v-324h64v324h62v48h-189v-48z M978 364q40 -33 100 -33q43 0 89 33v323q-38 30 -95 30q-60 0 -94 -30v-323zM1040 386v276h64v-276h-64zM1224 338h63v99h73l54 48v202q-43 23 -92 23h-98v-372zM1287 487v175h64v-175h-64zM1486 338h62v372h-62v-372zM1620 336h66v101h63v-101h64v351q-38 28 -96 28 q-65 0 -97 -28v-351zM1686 487v175q5 5 26 5h9q17 0 28 -5v-175h-63z" />
<glyph unicode="&#x202f;" horiz-adv-x="317" />
<glyph unicode="&#x205f;" horiz-adv-x="396" />
<glyph unicode="&#x25fc;" horiz-adv-x="1161" d="M0 0v1162h1162v-1162h-1162z" />
</font>
</defs>
</svg>
